<svg width="17" height="10" viewBox="0 0 17 10" fill="none" xmlns="http://www.w3.org/2000/svg">
<path d="M0.0492401 1.49567C0.0491238 1.5629 0.0626202 1.62945 0.0889149 1.69132C0.11521 1.75319 0.153759 1.8091 0.20224 1.85567L7.83324 9.21467C7.92614 9.30467 8.0504 9.35498 8.17974 9.35498C8.30908 9.35498 8.43334 9.30467 8.52624 9.21467L16.1882 1.82367C16.2383 1.77888 16.2789 1.72444 16.3075 1.66362C16.3361 1.60279 16.3521 1.53683 16.3546 1.46967C16.3571 1.40251 16.3461 1.33553 16.3221 1.27273C16.2982 1.20994 16.2618 1.15262 16.2152 1.10419C16.1686 1.05577 16.1127 1.01724 16.0509 0.990908C15.9891 0.964574 15.9226 0.950977 15.8553 0.950928C15.7881 0.950879 15.7216 0.964381 15.6597 0.990626C15.5979 1.01687 15.5419 1.05532 15.4952 1.10367L8.18024 8.15967L0.89624 1.13567C0.825603 1.06759 0.736496 1.02178 0.640017 1.00397C0.543537 0.986157 0.443951 0.997123 0.353659 1.0355C0.263367 1.07388 0.186359 1.13797 0.132229 1.2198C0.0780983 1.30162 0.0492382 1.39756 0.0492401 1.49567Z" fill="#444444"/>
</svg>
