<svg width="12" height="6" viewBox="0 0 12 6" fill="none" xmlns="http://www.w3.org/2000/svg">
<path d="M1.76857e-05 0.388916C-6.547e-05 0.436911 0.00957065 0.484428 0.0283437 0.5286C0.0471168 0.572771 0.0746381 0.612685 0.109251 0.645935L5.55734 5.89983C5.62366 5.96408 5.71238 6 5.80472 6C5.89706 6 5.98577 5.96408 6.0521 5.89983L11.5223 0.623089C11.5581 0.591108 11.587 0.552243 11.6075 0.508818C11.6279 0.465393 11.6393 0.418299 11.6411 0.37035C11.6429 0.322401 11.635 0.274582 11.6179 0.229751C11.6008 0.184919 11.5749 0.143994 11.5416 0.109424C11.5083 0.0748528 11.4684 0.0473442 11.4243 0.0285434C11.3801 0.00974267 11.3326 3.48251e-05 11.2846 9.35193e-08C11.2367 -3.46381e-05 11.1892 0.00960506 11.145 0.0283419C11.1008 0.0470787 11.0609 0.0745279 11.0276 0.109051L5.80507 5.14662L0.604726 0.131898C0.554296 0.0832868 0.490678 0.0505855 0.421797 0.0378686C0.352917 0.0251517 0.281818 0.0329805 0.217354 0.0603794C0.152891 0.0877783 0.0979123 0.133537 0.0592666 0.191956C0.0206209 0.250374 1.59346e-05 0.318871 1.76857e-05 0.388916Z" fill="#444444"/>
</svg>
