<svg width="17" height="10" viewBox="0 0 17 10" fill="none" xmlns="http://www.w3.org/2000/svg">
<path d="M16.3551 8.81024C16.3552 8.74301 16.3417 8.67645 16.3154 8.61458C16.2891 8.55271 16.2505 8.49681 16.2021 8.45024L8.57106 1.09123C8.47816 1.00124 8.35389 0.950926 8.22456 0.950926C8.09522 0.950926 7.97096 1.00124 7.87806 1.09123L0.216057 8.48223C0.165954 8.52703 0.125397 8.58147 0.0968078 8.64229C0.0682191 8.70312 0.0521866 8.76908 0.0496677 8.83624C0.0471488 8.9034 0.0581957 8.97038 0.082148 9.03317C0.1061 9.09597 0.142466 9.15329 0.189073 9.20171C0.23568 9.25014 0.291569 9.28867 0.353403 9.315C0.415237 9.34133 0.481746 9.35493 0.548954 9.35498C0.616162 9.35503 0.68269 9.34153 0.744563 9.31528C0.806435 9.28904 0.86238 9.25059 0.909057 9.20224L8.22406 2.14624L15.5081 9.17023C15.5787 9.23832 15.6678 9.28413 15.7643 9.30194C15.8608 9.31975 15.9603 9.30879 16.0506 9.27041C16.1409 9.23203 16.2179 9.16794 16.2721 9.08611C16.3262 9.00429 16.3551 8.90835 16.3551 8.81024Z" fill="#444444"/>
</svg>
