<svg width="20" height="21" viewBox="0 0 20 21" fill="none" xmlns="http://www.w3.org/2000/svg">
<path fill-rule="evenodd" clip-rule="evenodd" d="M2 7.87334H3.99978C4.00007 8.23472 4.20262 8.58256 4.55279 8.75518C5.04676 8.99869 5.64744 8.80128 5.89443 8.31426L6.11803 7.87334H13.882L14.1056 8.31426C14.3526 8.80128 14.9532 8.99869 15.4472 8.75518C15.7974 8.58256 15.9999 8.23472 16.0002 7.87334H18V9.84519H2V7.87334ZM15.118 5.9015H18C19.1046 5.9015 20 6.78433 20 7.87334V9.84519C20 10.6734 19.4821 11.3823 18.7482 11.6744C18.7516 11.7215 18.7534 11.7691 18.7534 11.817C18.7534 11.9609 18.7374 12.1043 18.7058 12.2448L17.1502 19.1462C16.9469 20.0484 16.1352 20.6903 15.1978 20.6903H4.80217C3.86477 20.6903 3.05315 20.0484 2.8498 19.1462L1.29424 12.2448C1.25095 12.0527 1.23767 11.8609 1.25134 11.6742C0.517673 11.382 0 10.6732 0 9.84519V7.87334C0 6.78433 0.89543 5.9015 2 5.9015H4.88197L7.10557 1.5169C7.35256 1.02988 7.95323 0.83247 8.44721 1.07598C8.94119 1.31949 9.14142 1.91171 8.89443 2.39873L7.11803 5.9015H12.882L11.1056 2.39873C10.8586 1.91171 11.0588 1.31949 11.5528 1.07598C12.0468 0.83247 12.6474 1.02988 12.8944 1.5169L15.118 5.9015ZM3.24662 11.817H16.7534L15.1978 18.7185H4.80217L3.24662 11.817Z" fill="#AB0E66"/>
</svg>
