<svg width="21" height="22" viewBox="0 0 21 22" fill="none" xmlns="http://www.w3.org/2000/svg">
<path d="M4.0425 16.6036C4.935 15.9307 5.9325 15.4 7.035 15.0114C8.1375 14.6236 9.2925 14.4296 10.5 14.4296C11.7075 14.4296 12.8625 14.6236 13.965 15.0114C15.0675 15.4 16.065 15.9307 16.9575 16.6036C17.57 15.8962 18.047 15.0939 18.3886 14.1967C18.7295 13.2995 18.9 12.3419 18.9 11.324C18.9 9.02924 18.082 7.0751 16.4461 5.46154C14.8095 3.84867 12.8275 3.04224 10.5 3.04224C8.1725 3.04224 6.1908 3.84867 4.5549 5.46154C2.9183 7.0751 2.1 9.02924 2.1 11.324C2.1 12.3419 2.2708 13.2995 2.6124 14.1967C2.9533 15.0939 3.43 15.8962 4.0425 16.6036ZM10.5 12.3592C9.4675 12.3592 8.5967 12.01 7.8876 11.3116C7.1792 10.6124 6.825 9.75389 6.825 8.73593C6.825 7.71797 7.1792 6.85943 7.8876 6.16031C8.5967 5.46188 9.4675 5.11267 10.5 5.11267C11.5325 5.11267 12.4033 5.46188 13.1124 6.16031C13.8208 6.85943 14.175 7.71797 14.175 8.73593C14.175 9.75389 13.8208 10.6124 13.1124 11.3116C12.4033 12.01 11.5325 12.3592 10.5 12.3592ZM10.5 21.6761C9.0475 21.6761 7.6825 21.4042 6.405 20.8604C5.1275 20.3172 4.01625 19.5798 3.07125 18.6481C2.12625 17.7164 1.3783 16.6208 0.8274 15.3613C0.2758 14.1018 0 12.756 0 11.324C0 9.89192 0.2758 8.54614 0.8274 7.28663C1.3783 6.02711 2.12625 4.93151 3.07125 3.99981C4.01625 3.06812 5.1275 2.33035 6.405 1.78652C7.6825 1.24337 9.0475 0.971802 10.5 0.971802C11.9525 0.971802 13.3175 1.24337 14.595 1.78652C15.8725 2.33035 16.9837 3.06812 17.9287 3.99981C18.8737 4.93151 19.6217 6.02711 20.1726 7.28663C20.7242 8.54614 21 9.89192 21 11.324C21 12.756 20.7242 14.1018 20.1726 15.3613C19.6217 16.6208 18.8737 17.7164 17.9287 18.6481C16.9837 19.5798 15.8725 20.3172 14.595 20.8604C13.3175 21.4042 11.9525 21.6761 10.5 21.6761Z" fill="#AB0E66"/>
</svg>
