<svg width="22" height="22" viewBox="0 0 22 22" fill="none" xmlns="http://www.w3.org/2000/svg">
<path d="M11 0.957764C9.02219 0.957764 7.08879 1.536 5.4443 2.61934C3.79981 3.70268 2.51809 5.24248 1.76121 7.04402C1.00433 8.84555 0.806299 10.8279 1.19215 12.7404C1.578 14.6529 2.53041 16.4097 3.92894 17.7885C5.32746 19.1673 7.10929 20.1063 9.0491 20.4867C10.9889 20.8672 12.9996 20.6719 14.8268 19.9257C16.6541 19.1795 18.2159 17.9158 19.3147 16.2945C20.4135 14.6731 21 12.7669 21 10.817C21 8.20215 19.9464 5.69442 18.0711 3.84546C16.1957 1.9965 13.6522 0.957764 11 0.957764Z" stroke="#AB0E66" stroke-width="1.81818" stroke-miterlimit="10"/>
<path d="M9.63632 5.43921C8.82722 5.43921 8.03628 5.67576 7.36353 6.11894C6.69079 6.56213 6.16645 7.19205 5.85681 7.92904C5.54718 8.66603 5.46617 9.477 5.62402 10.2594C5.78187 11.0418 6.17149 11.7604 6.74361 12.3245C7.31574 12.8886 8.04467 13.2727 8.83822 13.4283C9.63178 13.584 10.4543 13.5041 11.2018 13.1988C11.9494 12.8935 12.5883 12.3766 13.0378 11.7133C13.4873 11.05 13.7272 10.2702 13.7272 9.47252C13.7272 8.94286 13.6214 8.41838 13.4158 7.92904C13.2102 7.4397 12.9089 6.99507 12.529 6.62054C12.1492 6.24601 11.6982 5.94892 11.2018 5.74623C10.7055 5.54353 10.1735 5.43921 9.63632 5.43921V5.43921Z" stroke="#AB0E66" stroke-width="1.81818" stroke-miterlimit="10"/>
<path d="M12.5703 12.3654L15.5453 15.2985" stroke="#AB0E66" stroke-width="1.81818" stroke-miterlimit="10" stroke-linecap="round"/>
</svg>
